<svg xmlns="http://www.w3.org/2000/svg" width="120" height="120" viewBox="0 0 120 120" role="img" aria-label="Ícone Conexão Green">
  <defs>
    <linearGradient id="bg" x1="0" y1="0" x2="1" y2="1">
      <stop offset="0" stop-color="#DCFCE7"/>
      <stop offset="1" stop-color="#ECFDF5"/>
    </linearGradient>
  </defs>
  <rect width="120" height="120" rx="24" fill="url(#bg)"/>
  <path d="M72 34c-12 2-22 10-26 22-4 12-1 24 8 32 18-8 30-26 30-44 0-4-1-7-2-10-4 0-7 0-10 0z" fill="#16A34A" fill-opacity="0.25"/>
  <path d="M70 38c-10 2-18 9-21 20-3 10-1 19 6 26 15-7 25-22 25-38 0-3 0-6-1-8-3 0-6 0-9 0z" fill="#16A34A"/>
  <path d="M44 74c14-2 24-10 28-22" stroke="#14532D" stroke-width="6" stroke-linecap="round" fill="none" opacity="0.35"/>
</svg>
